<svg xmlns="http://www.w3.org/2000/svg" width="230" height="80" viewBox="0 0 230 80" role="img" aria-labelledby="title">
  <title id="title">LinkedIn: let's connect</title>
  <defs>
    <linearGradient id="bg" x1="0" y1="0" x2="1" y2="1">
      <stop offset="0" stop-color="#0f2027"/>
      <stop offset="0.55" stop-color="#203a43"/>
      <stop offset="1" stop-color="#2c5364"/>
    </linearGradient>
    <linearGradient id="border" x1="0" y1="0" x2="1" y2="0">
      <stop offset="0" stop-color="#0a66c2"/>
      <stop offset="1" stop-color="#38bdf8"/>
    </linearGradient>
    <linearGradient id="badge" x1="0" y1="0" x2="1" y2="1">
      <stop offset="0" stop-color="#1d8cf0"/>
      <stop offset="1" stop-color="#0a66c2"/>
    </linearGradient>
    <linearGradient id="shine" x1="0" y1="0" x2="1" y2="0">
      <stop offset="0" stop-color="#ffffff" stop-opacity="0"/>
      <stop offset="0.5" stop-color="#ffffff" stop-opacity="0.16"/>
      <stop offset="1" stop-color="#ffffff" stop-opacity="0"/>
    </linearGradient>
    <filter id="glow" x="-20%" y="-50%" width="140%" height="200%">
      <feGaussianBlur stdDeviation="5"/>
    </filter>
    <clipPath id="clip">
      <rect x="10" y="10" width="210" height="60" rx="16"/>
    </clipPath>
  </defs>
  <style>
    .shine { transform: translateX(0) skewX(-20deg); animation: shine 6s ease-in-out 1s infinite; }
    @keyframes shine {
      0% { transform: translateX(0) skewX(-20deg); }
      22%, 100% { transform: translateX(310px) skewX(-20deg); }
    }
    @media (prefers-reduced-motion: reduce) { .shine { animation: none; } }
    text { font-family: 'Segoe UI', -apple-system, BlinkMacSystemFont, 'Helvetica Neue', Helvetica, Arial, sans-serif; }
  </style>

  <!-- soft brand glow -->
  <rect x="12" y="13" width="206" height="58" rx="16" fill="#0a66c2" opacity="0.5" filter="url(#glow)"/>

  <!-- pill -->
  <rect x="10" y="10" width="210" height="60" rx="16" fill="url(#bg)"/>
  <g clip-path="url(#clip)">
    <rect class="shine" x="-60" y="0" width="50" height="80" fill="url(#shine)"/>
  </g>
  <rect x="10.75" y="10.75" width="208.5" height="58.5" rx="15.25" fill="none" stroke="url(#border)" stroke-width="1.5"/>

  <!-- icon -->
  <g transform="translate(22 22)">
    <rect width="36" height="36" rx="10" fill="url(#badge)"/>
    <circle cx="10.8" cy="11.4" r="2.5" fill="#ffffff"/>
    <rect x="8.6" y="15" width="4.4" height="11.5" rx="0.6" fill="#ffffff"/>
    <path d="M15.2 15 H19.3 V16.6 C20 15.5 21.4 14.7 23.2 14.7 C26.2 14.7 27.4 16.6 27.4 19.8 V26.5 H23.2 V20.6 C23.2 19.1 22.7 18.2 21.4 18.2 C20 18.2 19.3 19.2 19.3 20.6 V26.5 H15.2 Z" fill="#ffffff"/>
  </g>

  <!-- label -->
  <text x="70" y="35.5" font-size="15.5" font-weight="700" fill="#f1f5f9">LinkedIn</text>
  <text x="70" y="52.5" font-size="11.5" fill="#94a3b8">Let's connect</text>

  <!-- arrow -->
  <circle cx="196" cy="40" r="11" fill="#38bdf8" fill-opacity="0.12"/>
  <path d="M192.5 43.5 L199.5 36.5 M193.5 36.5 H199.5 V42.5" fill="none" stroke="#7dd3fc" stroke-width="1.8" stroke-linecap="round" stroke-linejoin="round"/>
</svg>
